Coordinates
version=1
nRows=5
nColumns=40
inDegrees=yes

Units are S.I. units (second, meters, Newtons, ...)
Angles are in degrees.

endheader
time	pelvis_tilt	pelvis_list	pelvis_rotation	pelvis_tx	pelvis_ty	pelvis_tz	hip_flexion_r	hip_adduction_r	hip_rotation_r	knee_angle_r	knee_angle_r_beta	ankle_angle_r	subtalar_angle_r	mtp_angle_r	hip_flexion_l	hip_adduction_l	hip_rotation_l	knee_angle_l	knee_angle_l_beta	ankle_angle_l	subtalar_angle_l	mtp_angle_l	lumbar_extension	lumbar_bending	lumbar_rotation	arm_flex_r	arm_add_r	arm_rot_r	elbow_flex_r	pro_sup_r	wrist_flex_r	wrist_dev_r	arm_flex_l	arm_add_l	arm_rot_l	elbow_flex_l	pro_sup_l	wrist_flex_l	wrist_dev_l
     21.52250000	     -2.37530379	     -5.50253798	     -2.66234826	      1.12161321	      0.92142677	      0.46962011	     21.41941420	      2.49512075	    -13.55288058	     21.19880156	     21.19880156	      4.95025604	     -0.71099292	     -3.85228770	      3.41476491	    -12.14782293	     -8.77893114	     44.68833826	     44.68833826	      8.53234359	    -14.28040883	    -13.39180226	     -9.64528856	      8.01662040	      0.61529684	    -14.33725238	    -10.19463311	    -11.64883700	     22.67535321	     46.99413888	      0.00000000	      0.00000000	     13.80164813	    -16.07237199	     -8.81666384	     91.43909002	     47.88680003	      0.00000000	      0.00000000
     21.53371429	     -2.25429103	     -5.76990064	     -2.28390600	      1.12142639	      0.92281602	      0.47170968	     20.38875356	      2.84426043	    -13.97675743	     20.76426333	     20.76426333	      5.57193335	     -0.38305333	     -4.08526354	      5.45215830	    -12.93397994	     -7.79220353	     48.62531428	     48.62531428	      6.70420846	    -15.60011400	    -12.29148793	     -9.79306195	      8.25409711	      0.74567631	    -12.84028667	    -10.19699154	    -11.44527154	     23.28768162	     46.96138060	      0.00000000	      0.00000000	     12.72146490	    -15.29949494	     -8.36195835	     89.94110251	     47.82846082	      0.00000000	      0.00000000
     21.54492857	     -2.27653665	     -5.79170509	     -1.91002119	      1.12095581	      0.92409686	      0.47337609	     19.47150402	      2.89709391	    -14.53918373	     20.18834667	     20.18834667	      5.93833328	      0.29649459	     -4.87528964	      7.98347082	    -13.22651024	     -6.57523440	     52.92590138	     52.92590138	      7.86136674	    -15.57596243	     -3.94266852	     -9.67693703	      8.30451937	      1.26556863	    -11.81109671	    -10.31501113	     -9.85147731	     24.49067519	     46.75766715	      0.00000000	      0.00000000	     12.53313127	    -14.35745646	     -7.31687509	     86.06290134	     47.74195821	      0.00000000	      0.00000000
     21.55614286	     -2.27313363	     -5.91427681	     -1.54522404	      1.12040592	      0.92529845	      0.47496090	     18.52389708	      3.06468796	    -15.13484831	     19.61284187	     19.61284187	      6.36686425	      1.05424974	     -5.28365160	     10.32234004	    -13.67276148	     -5.65977621	     56.47242649	     56.47242649	      7.68937140	    -16.31248479	      0.25396599	     -9.64896288	      8.43537133	      1.46117435	    -10.34300109	    -10.48295504	     -9.03478562	     25.49424781	     46.64659380	      0.00000000	      0.00000000	     11.75610305	    -13.46413246	     -6.83881160	     83.24196664	     47.69294191	      0.00000000	      0.00000000
     21.56735714	     -2.27436144	     -6.13250940	     -1.18455912	      1.11973410	      0.92638211	      0.47658473	     17.56805586	      3.40468948	    -15.55969545	     18.97026206	     18.97026206	      6.76747989	      1.47244528	     -5.35710139	     12.51974770	    -14.28857407	     -4.99308546	     59.34258247	     59.34258247	      6.66852842	    -17.37261379	      1.01631948	     -9.69408690	      8.63322380	      1.48672471	     -8.55601825	    -10.61766521	     -8.97433538	     26.26688531	     46.62344866	      0.00000000	      0.00000000	     10.42240023	    -12.85386959	     -6.29849181	     81.68605982	     47.62520918	      0.00000000	      0.00000000
